HIERARCHY
ROOT hip
{
  OFFSET 0 0 0
  CHANNELS 6 Xposition Yposition Zposition Zrotation Yrotation Xrotation
  JOINT abdomen
  {
    OFFSET 0 20.6881 -0.73152
    CHANNELS 3 Zrotation Xrotation Yrotation
    JOINT chest
    {
      OFFSET 0 11.7043 -0.48768
      CHANNELS 3 Zrotation Xrotation Yrotation
      JOINT neck
      {
        OFFSET 0 22.1894 -2.19456
        CHANNELS 3 Zrotation Xrotation Yrotation
        JOINT head
        {
          OFFSET -0.24384 7.07133 1.2192
          CHANNELS 3 Zrotation Xrotation Yrotation
          JOINT leftEye
          {
            OFFSET 4.14528 8.04674 8.04672
            CHANNELS 3 Zrotation Xrotation Yrotation
            End Site
            {
              OFFSET 1 0 0
            }
          }
          JOINT rightEye
          {
            OFFSET -3.6576 8.04674 8.04672
            CHANNELS 3 Zrotation Xrotation Yrotation
            End Site
            {
              OFFSET 1 0 0
            }
          }
        }
      }
      JOINT rCollar
      {
        OFFSET -2.68224 19.2634 -4.8768
        CHANNELS 3 Zrotation Xrotation Yrotation
        JOINT rShldr
        {
          OFFSET -8.77824 -1.95073 1.46304
          CHANNELS 3 Zrotation Xrotation Yrotation
          JOINT rForeArm
          {
            OFFSET -28.1742 -1.7115 0.48768
            CHANNELS 3 Zrotation Xrotation Yrotation
            JOINT rHand
            {
              OFFSET -22.5879 0.773209 7.07136
              CHANNELS 3 Zrotation Xrotation Yrotation
              JOINT rThumb1
              {
                OFFSET -1.2192 -0.487915 3.41376
                CHANNELS 3 Zrotation Xrotation Yrotation
                JOINT rThumb2
                {
                  OFFSET -3.37035 -0.52449 3.41376
                  CHANNELS 3 Zrotation Xrotation Yrotation
                  End Site
                  {
                    OFFSET -1.78271 -1.18214 1.43049
                  }
                }
              }
              JOINT rIndex1
              {
                OFFSET -7.75947 0.938293 5.60832
                CHANNELS 3 Zrotation Xrotation Yrotation
                JOINT rIndex2
                {
                  OFFSET -2.54057 -0.884171 1.56538
                  CHANNELS 3 Zrotation Xrotation Yrotation
                  End Site
                  {
                    OFFSET -1.62519 -0.234802 1.16502
                  }
                }
              }
              JOINT rMid1
              {
                OFFSET -8.24714 1.18213 3.41376
                CHANNELS 3 Zrotation Xrotation Yrotation
                JOINT rMid2
                {
                  OFFSET -3.10165 -0.590103 1.0647
                  CHANNELS 3 Zrotation Xrotation Yrotation
                  End Site
                  {
                    OFFSET -2.48547 -0.328903 0.83742
                  }
                }
              }
              JOINT rRing1
              {
                OFFSET -8.82822 0.546677 1.51678
                CHANNELS 3 Zrotation Xrotation Yrotation
                JOINT rRing2
                {
                  OFFSET -2.60934 -0.819778 -0.0198488
                  CHANNELS 3 Zrotation Xrotation Yrotation
                  End Site
                  {
                    OFFSET -2.33842 -0.294052 0.168128
                  }
                }
              }
              JOINT rPinky1
              {
                OFFSET -8.27202 -0.0477905 -0.4584
                CHANNELS 3 Zrotation Xrotation Yrotation
                JOINT rPinky2
                {
                  OFFSET -1.82734 -0.647385 -0.700984
                  CHANNELS 3 Zrotation Xrotation Yrotation
                  End Site
                  {
                    OFFSET -1.69225 -0.51767 -0.607171
                  }
                }
              }
            }
          }
        }
      }
      JOINT lCollar
      {
        OFFSET 2.68224 19.2634 -4.8768
        CHANNELS 3 Zrotation Xrotation Yrotation
        JOINT lShldr
        {
          OFFSET 8.77824 -1.95073 1.46304
          CHANNELS 3 Zrotation Xrotation Yrotation
          JOINT lForeArm
          {
            OFFSET 28.1742 -1.7115 0.48768
            CHANNELS 3 Zrotation Xrotation Yrotation
            JOINT lHand
            {
              OFFSET 22.5879 0.773209 7.07136
              CHANNELS 3 Zrotation Xrotation Yrotation
              JOINT lThumb1
              {
                OFFSET 1.2192 -0.487915 3.41376
                CHANNELS 3 Zrotation Xrotation Yrotation
                JOINT lThumb2
                {
                  OFFSET 3.37035 -0.52449 3.41376
                  CHANNELS 3 Zrotation Xrotation Yrotation
                  End Site
                  {
                    OFFSET 1.78271 -1.18214 1.43049
                  }
                }
              }
              JOINT lIndex1
              {
                OFFSET 7.75947 0.938293 5.60832
                CHANNELS 3 Zrotation Xrotation Yrotation
                JOINT lIndex2
                {
                  OFFSET 2.54057 -0.884171 1.56538
                  CHANNELS 3 Zrotation Xrotation Yrotation
                  End Site
                  {
                    OFFSET 1.62519 -0.234802 1.16502
                  }
                }
              }
              JOINT lMid1
              {
                OFFSET 8.24714 1.18213 3.41376
                CHANNELS 3 Zrotation Xrotation Yrotation
                JOINT lMid2
                {
                  OFFSET 3.10165 -0.590103 1.0647
                  CHANNELS 3 Zrotation Xrotation Yrotation
                  End Site
                  {
                    OFFSET 2.48547 -0.328903 0.83742
                  }
                }
              }
              JOINT lRing1
              {
                OFFSET 8.82822 0.546677 1.51678
                CHANNELS 3 Zrotation Xrotation Yrotation
                JOINT lRing2
                {
                  OFFSET 2.60934 -0.819778 -0.0198488
                  CHANNELS 3 Zrotation Xrotation Yrotation
                  End Site
                  {
                    OFFSET 2.33842 -0.294052 0.168128
                  }
                }
              }
              JOINT lPinky1
              {
                OFFSET 8.27202 -0.0477905 -0.4584
                CHANNELS 3 Zrotation Xrotation Yrotation
                JOINT lPinky2
                {
                  OFFSET 1.82734 -0.647385 -0.700984
                  CHANNELS 3 Zrotation Xrotation Yrotation
                  End Site
                  {
                    OFFSET 1.69225 -0.51767 -0.607171
                  }
                }
              }
            }
          }
        }
      }
    }
  }
  JOINT rButtock
  {
    OFFSET -8.77824 4.35084 1.2192
    CHANNELS 3 Zrotation Xrotation Yrotation
    JOINT rThigh
    {
      OFFSET 0 -1.70687 -2.19456
      CHANNELS 3 Zrotation Xrotation Yrotation
      JOINT rShin
      {
        OFFSET 0 -36.8199 0.73152
        CHANNELS 3 Zrotation Xrotation Yrotation
        JOINT rFoot
        {
          OFFSET 0.73152 -45.1104 -5.12064
          CHANNELS 3 Zrotation Xrotation Yrotation
          End Site
          {
            OFFSET -1.1221 -3.69964 12.103
          }
        }
      }
    }
  }
  JOINT lButtock
  {
    OFFSET 8.77824 4.35084 1.2192
    CHANNELS 3 Zrotation Xrotation Yrotation
    JOINT lThigh
    {
      OFFSET 0 -1.70687 -2.19456
      CHANNELS 3 Zrotation Xrotation Yrotation
      JOINT lShin
      {
        OFFSET 0 -36.8199 0.73152
        CHANNELS 3 Zrotation Xrotation Yrotation
        JOINT lFoot
        {
          OFFSET -0.73152 -45.1104 -5.12064
          CHANNELS 3 Zrotation Xrotation Yrotation
          End Site
          {
            OFFSET 1.1221 -3.69964 12.103
          }
        }
      }
    }
  }
}
MOTION
Frames:	5
Frame Time:	0.00833333
-3.23606 82.52 44.8539 -7.325 -2.1497 7.0754 2.13645 -3.34362 4.13126 -2.96707 -9.75032 0.683088 2.12162 2.85442 -1.90547 -3.51628 11.291 -3.87632 -0.0 0.0 0.0 -0.0 0.0 0.0 -1.1131e-13 -1.62209e-13 -7.30037e-14 36.0397 57.1667 41.1517 -28.0409 -40.1929 84.2681 -0.000248219 0.449879 0.0632276 1.12223e-09 3.16742e-09 -2.21507e-09 1.93877e-09 5.47479e-09 -3.82998e-09 1.12223e-09 3.16742e-09 -2.21508e-09 7.73091 5.47488 0.417314 1.12223e-09 3.16742e-09 -2.21507e-09 2.90554 0.965183 0.102902 1.12224e-09 3.16742e-09 -2.21507e-09 10.2786 0.731801 0.0259123 1.12223e-09 3.16742e-09 -2.21506e-09 2.22167 -0.733487 -0.20892 -1.11236e-13 -1.62207e-13 -7.32521e-14 -66.8693 60.173 -20.3162 28.2514 -32.418 -71.1281 0.12103 -9.8716 1.4014 -1.01533e-10 6.97328e-09 2.14788e-09 -1.93698e-10 1.21228e-08 3.71687e-09 -1.01531e-10 6.97323e-09 2.14789e-09 -7.73091 5.47488 -0.417314 -1.01532e-10 6.97328e-09 2.14789e-09 -2.90554 0.965183 -0.102902 -1.01548e-10 6.97328e-09 2.14788e-09 -10.2786 0.731801 -0.0259123 -1.01534e-10 6.97328e-09 2.14788e-09 -2.22167 -0.733487 0.20892 -2.03217e-16 0.0 -3.88251e-19 2.16544 -3.69677 24.1278 0.0318847 -0.919273 0.257809 -4.26495 -4.73981 -21.4043 2.03217e-16 0.0 3.88251e-19 -2.04494 -5.34897 -39.7143 0.00382183 12.4301 -0.127389 11.3425 -12.8933 50.7497
-3.24868 82.5189 44.848 -7.4056 -1.9811 7.1267 2.22165 -3.3227 4.02723 -3.0306 -9.79421 0.647365 2.19354 2.85815 -1.8368 -3.52276 11.4274 -3.75264 -0.0 0.0 0.0 -0.0 0.0 0.0 -1.01673e-14 -1.19561e-13 -7.45955e-14 35.7041 57.105 41.4211 -28.0348 -39.9738 84.0861 -0.0673254 7.96814 1.09672 3.06574e-10 1.42441e-09 -1.72511e-09 5.34126e-10 2.47564e-09 -2.97048e-09 3.06578e-10 1.42441e-09 -1.72512e-09 7.73091 5.47488 0.417314 3.06573e-10 1.42441e-09 -1.72511e-09 2.90554 0.965183 0.102902 3.06586e-10 1.42441e-09 -1.72511e-09 10.2786 0.731801 0.0259123 3.06577e-10 1.42441e-09 -1.7251e-09 2.22167 -0.733487 -0.20892 -1.01168e-14 -1.19564e-13 -7.48024e-14 -67.1113 60.0778 -19.9752 28.2501 -32.4078 -71.1127 0.121097 -9.87382 1.40172 -3.00212e-10 7.65444e-09 2.16774e-09 -5.35558e-10 1.32833e-08 3.74737e-09 -3.00212e-10 7.65441e-09 2.16776e-09 -7.73091 5.47488 -0.417314 -3.00211e-10 7.65444e-09 2.16775e-09 -2.90554 0.965183 -0.102902 -3.00225e-10 7.65444e-09 2.16775e-09 -10.2786 0.731801 -0.0259123 -3.00212e-10 7.65444e-09 2.16775e-09 -2.22167 -0.733487 0.20892 -2.03217e-16 0.0 -3.88251e-19 2.25848 -3.70591 24.0919 0.0321534 -0.920946 0.256259 -4.28391 -4.7522 -21.4765 2.03217e-16 0.0 3.88251e-19 -1.93066 -5.4033 -39.6934 0.00380017 12.4143 -0.129384 11.2495 -12.8422 50.6207
-3.2724 82.5239 44.8586 -7.4878 -1.9563 7.0984 2.31009 -3.23803 4.00189 -3.12438 -9.82085 0.630769 2.25917 2.8494 -1.76371 -3.36211 11.6128 -3.63449 -0.0 0.0 0.0 -0.0 0.0 0.0 1.51822e-13 -2.59879e-14 -8.32411e-14 34.668 57.3314 42.3584 -28.1777 -39.097 82.5107 -0.304517 15.9339 2.26216 -1.07529e-09 -1.49634e-09 -8.05448e-10 -1.84558e-09 -2.54799e-09 -1.36352e-09 -1.07529e-09 -1.49634e-09 -8.05467e-10 7.73091 5.47488 0.417314 -1.07529e-09 -1.49634e-09 -8.05449e-10 2.90554 0.965183 0.102902 -1.07528e-09 -1.49634e-09 -8.05448e-10 10.2786 0.731801 0.0259123 -1.07529e-09 -1.49634e-09 -8.05438e-10 2.22167 -0.733487 -0.20892 1.51809e-13 -2.59943e-14 -8.33871e-14 -67.0447 60.0083 -19.913 28.2414 -32.3286 -70.9836 0.122183 -9.91742 1.40803 -5.32481e-10 7.84327e-09 1.99227e-09 -9.32816e-10 1.35797e-08 3.43872e-09 -5.32485e-10 7.84325e-09 1.9923e-09 -7.73091 5.47488 -0.417314 -5.3248e-10 7.84327e-09 1.99228e-09 -2.90554 0.965183 -0.102902 -5.32491e-10 7.84327e-09 1.99228e-09 -10.2786 0.731801 -0.0259123 -5.3248e-10 7.84327e-09 1.99228e-09 -2.22167 -0.733487 0.20892 -2.03217e-16 0.0 -3.88251e-19 2.37947 -3.64492 24.012 0.0330373 -0.91147 0.256253 -4.26864 -4.74532 -21.3923 2.03217e-16 0.0 3.88251e-19 -1.79791 -5.33322 -39.6335 0.00366903 12.4 -0.128708 11.2699 -12.8683 50.5871
-3.30315 82.5362 44.8874 -7.5564 -2.056 6.9713 2.35733 -3.12725 4.04614 -3.20494 -9.82141 0.635354 2.30605 2.83131 -1.70542 -3.13392 11.7859 -3.54852 -0.0 0.0 0.0 -0.0 0.0 0.0 3.0283e-13 7.62073e-14 -9.37503e-14 33.2606 57.6579 43.6349 -28.3238 -37.8692 80.3105 -0.651195 21.9645 3.23725 -2.40286e-09 -4.31849e-09 1.55146e-10 -4.13198e-09 -7.40259e-09 3.12383e-10 -2.40286e-09 -4.31849e-09 1.55122e-10 7.73091 5.47488 0.417314 -2.40286e-09 -4.31849e-09 1.55141e-10 2.90554 0.965183 0.102902 -2.40285e-09 -4.31849e-09 1.55143e-10 10.2786 0.731801 0.0259123 -2.40286e-09 -4.31849e-09 1.55154e-10 2.22167 -0.733487 -0.20892 3.0275e-13 7.6198e-14 -9.38368e-14 -66.8038 59.9753 -20.022 28.2308 -32.2354 -70.8328 0.123844 -9.98389 1.41767 -7.17569e-10 7.33904e-09 1.64035e-09 -1.24734e-09 1.26762e-08 2.82565e-09 -7.17577e-10 7.33904e-09 1.64038e-09 -7.73091 5.47488 -0.417314 -7.17568e-10 7.33903e-09 1.64036e-09 -2.90554 0.965183 -0.102902 -7.17575e-10 7.33904e-09 1.64036e-09 -10.2786 0.731801 -0.0259123 -7.17565e-10 7.33904e-09 1.64037e-09 -2.22167 -0.733487 0.20892 -2.03217e-16 0.0 -3.88251e-19 2.47623 -3.55163 23.9163 0.0343268 -0.895457 0.257457 -4.2345 -4.73135 -21.2152 2.03217e-16 0.0 3.88251e-19 -1.69976 -5.19492 -39.5673 0.00369497 12.3954 -0.126403 11.3684 -12.9441 50.6316
-3.3412 82.5487 44.9144 -7.5874 -2.2626 6.8285 2.31885 -3.02801 4.15088 -3.22886 -9.78705 0.663167 2.32165 2.80699 -1.68112 -2.9371 11.8853 -3.52144 -0.0 0.0 0.0 -0.0 0.0 0.0 3.71028e-13 1.4472e-13 -1.00933e-13 31.8387 57.9084 44.8976 -28.4153 -36.6603 78.1201 -0.742332 23.6995 3.53692 -3.05564e-09 -5.7657e-09 7.67904e-10 -5.25673e-09 -9.89464e-09 1.37873e-09 -3.05564e-09 -5.7657e-09 7.67878e-10 7.73091 5.47488 0.417314 -3.05564e-09 -5.7657e-09 7.67897e-10 2.90554 0.965183 0.102902 -3.05563e-09 -5.7657e-09 7.679e-10 10.2786 0.731801 0.0259123 -3.05564e-09 -5.7657e-09 7.6791e-10 2.22167 -0.733487 -0.20892 3.70911e-13 1.4471e-13 -1.00983e-13 -66.5206 59.9888 -20.1961 28.2248 -32.1844 -70.751 0.125622 -10.0547 1.42794 -7.74704e-10 5.94102e-09 1.13087e-09 -1.34098e-09 1.02374e-08 1.94293e-09 -7.74715e-10 5.94104e-09 1.1309e-09 -7.73091 5.47488 -0.417314 -7.74702e-10 5.94102e-09 1.13087e-09 -2.90554 0.965183 -0.102902 -7.74707e-10 5.94102e-09 1.13087e-09 -10.2786 0.731801 -0.0259123 -7.74698e-10 5.94102e-09 1.13088e-09 -2.22167 -0.733487 0.20892 -2.03217e-16 0.0 -3.88251e-19 2.49626 -3.46398 23.8329 0.0358121 -0.877518 0.259539 -4.1968 -4.72246 -21.0087 2.03217e-16 0.0 3.88251e-19 -1.68888 -5.04495 -39.5277 0.0041416 12.4087 -0.123509 11.5104 -13.0412 50.7366
